Coordinates
version=1
nRows=12
nColumns=46
inDegrees=yes

Units are S.I. units (second, meters, Newtons, ...)
Angles are in degrees.

endheader
time	pelvis_tilt	pelvis_list	pelvis_rotation	pelvis_tx	pelvis_ty	pelvis_tz	bb_angle	bb_tx	bb_ty	bb_tz	hip_flexion_r	hip_adduction_r	hip_rotation_r	knee_angle_r	knee_angle_r_beta	ankle_angle_r	subtalar_angle_r	mtp_angle_r	crank_angle_r	hip_flexion_l	hip_adduction_l	hip_rotation_l	knee_angle_l	knee_angle_l_beta	ankle_angle_l	subtalar_angle_l	mtp_angle_l	crank_angle_l	lumbar_extension	lumbar_bending	lumbar_rotation	arm_flex_r	arm_add_r	arm_rot_r	elbow_flex_r	pro_sup_r	wrist_flex_r	wrist_dev_r	arm_flex_l	arm_add_l	arm_rot_l	elbow_flex_l	pro_sup_l	wrist_flex_l	wrist_dev_l
      0.00000000	    -25.98005485	      3.89959044	      5.53757550	      0.10103860	      1.05825704	     -0.26548813	      0.00000000	      0.50000000	      0.00000000	      0.25000000	     58.23094810	    -11.54329394	     -0.64769718	     67.22247569	      1.17325353	     18.83969167	     -9.07962886	      0.00000000	      0.00000000	     94.20919696	      0.70772214	     -3.47321669	     87.82788199	      1.53288572	     23.74168305	     -6.96627971	      0.00000000	      0.00000000	    -57.89189441	     -1.77877856	    -49.42357031	     89.84201806	     33.83763182	     23.00870470	     41.80379157	     18.65622139	      0.00000000	      0.00000000	     72.03865175	    -20.57444216	    -86.44184029	      2.84025815	      3.67635249	      0.00000000	      0.00000000
      0.00500000	    -25.95471503	      3.86034474	      5.57345865	      0.10104441	      1.05830304	     -0.26555789	      0.00000000	      0.50000000	      0.00000000	      0.25000000	     58.18853253	    -11.55178073	     -0.70999396	     67.22039565	      1.17321723	     18.84432353	     -9.11194834	      0.00000000	      0.00000000	     94.19491764	      0.75037389	     -3.43056159	     87.82448597	      1.53282644	     23.72729450	     -6.97369949	      0.00000000	      0.00000000	    -57.92281395	     -1.71711227	    -49.40517874	     89.84206144	     33.82591592	     22.97464641	     41.99862268	     17.98139211	      0.00000000	      0.00000000	     72.05719010	    -20.55924626	    -86.45170066	      2.85762024	      3.75144065	      0.00000000	      0.00000000
      0.01000000	    -25.95378124	      3.86009407	      5.56460354	      0.10105058	      1.05827845	     -0.26553264	      0.00000000	      0.50000000	      0.00000000	      0.25000000	     58.19937901	    -11.54309033	     -0.70840360	     67.24302398	      1.17361217	     18.84700488	     -9.12266425	      0.00000000	      0.00000000	     94.20275491	      0.73425631	     -3.43127287	     87.83406258	      1.53299359	     23.68501854	     -6.98045390	      0.00000000	      0.00000000	    -57.91699286	     -1.73161852	    -49.41229756	     89.84206540	     33.84038607	     22.95441984	     41.84322245	     18.66267879	      0.00000000	      0.00000000	     72.03359058	    -20.56204194	    -86.43538800	      2.87830446	      3.65834072	      0.00000000	      0.00000000
      0.01500000	    -25.81668338	      4.00912197	      5.54071326	      0.10134847	      1.05859962	     -0.26568143	      0.00000000	      0.50000000	      0.00000000	      0.25000000	     58.07474954	    -11.67104612	     -0.61516657	     67.29270223	      1.17447922	     18.85587553	     -8.99686092	      0.00000000	      0.00000000	     94.01426261	      0.69265488	     -3.67325186	     87.82134887	      1.53277169	     23.63583551	     -7.07643979	      0.00000000	      0.00000000	    -58.08631215	     -1.81771647	    -49.50056130	     89.84236910	     33.77901082	     23.01271521	     41.67507509	     19.71185851	      0.00000000	      0.00000000	     72.06124486	    -20.54677870	    -86.45019492	      2.88425833	      3.69263620	      0.00000000	      0.00000000
      0.02000000	    -25.79339710	      4.04648065	      5.57402706	      0.10136226	      1.05863323	     -0.26568157	      0.00000000	      0.50000000	      0.00000000	      0.25000000	     58.06000851	    -11.72617280	     -0.61379688	     67.32369800	      1.17502019	     18.89300936	     -8.97377837	      0.00000000	      0.00000000	     93.99662907	      0.77631648	     -3.63006032	     87.83890791	      1.53307815	     23.61706505	     -7.25160039	      0.00000000	      0.00000000	    -58.10530091	     -1.79074406	    -49.54391269	     89.84207186	     33.86447492	     22.82336735	     41.77632607	     19.10347112	      0.00000000	      0.00000000	     72.06751322	    -20.56204836	    -86.39713889	      2.86483206	      3.61591276	      0.00000000	      0.00000000
      0.02500000	    -25.78963519	      4.03877854	      5.56761475	      0.10136763	      1.05867884	     -0.26567621	      0.00000000	      0.50000000	      0.00000000	      0.25000000	     58.05563473	    -11.70852551	     -0.60133024	     67.32100031	      1.17497311	     18.85359240	     -9.01068564	      0.00000000	      0.00000000	     94.00541403	      0.75046749	     -3.63847996	     87.77007285	      1.53187676	     23.67251210	     -7.06272185	      0.00000000	      0.00000000	    -58.11698826	     -1.79605754	    -49.53439057	     89.84213185	     33.81123905	     22.99049792	     41.77523388	     19.24271103	      0.00000000	      0.00000000	     72.06993000	    -20.57035155	    -86.48867236	      2.85351914	      3.75971292	      0.00000000	      0.00000000
      0.03000000	    -25.78456921	      4.03030590	      5.60657450	      0.10133191	      1.05875272	     -0.26567846	      0.00000000	      0.50000000	      0.00000000	      0.25000000	     58.04071014	    -11.72640893	     -0.62338610	     67.31416376	      1.17485379	     18.83341669	     -9.05245761	      0.00000000	      0.00000000	     94.01018228	      0.80640964	     -3.60524529	     87.75217899	      1.53156445	     23.59046217	     -7.09256951	      0.00000000	      0.00000000	    -58.13097034	     -1.75350311	    -49.54751831	     89.84195048	     33.87572074	     22.83820529	     41.98236376	     18.30488150	      0.00000000	      0.00000000	     72.08010806	    -20.57808060	    -86.45309765	      2.84088067	      3.74297007	      0.00000000	      0.00000000
      0.03500000	    -25.76909064	      4.04716403	      5.60660577	      0.10131017	      1.05879905	     -0.26566987	      0.00000000	      0.50000000	      0.00000000	      0.25000000	     58.03051911	    -11.73760413	     -0.60636766	     67.32220721	      1.17499418	     18.83145908	     -9.06067947	      0.00000000	      0.00000000	     93.99883676	      0.80607324	     -3.62353222	     87.74617527	      1.53145966	     23.56139521	     -7.13314687	      0.00000000	      0.00000000	    -58.14198750	     -1.77492872	    -49.54056611	     89.84212903	     33.78204065	     23.04697233	     41.91000345	     18.65877270	      0.00000000	      0.00000000	     72.10339399	    -20.56560433	    -86.47450592	      2.81655310	      3.77866014	      0.00000000	      0.00000000
      0.04000000	    -25.78498284	      4.02132868	      5.55633459	      0.10133824	      1.05869728	     -0.26553309	      0.00000000	      0.50000000	      0.00000000	      0.25000000	     58.06867034	    -11.65556588	     -0.58608695	     67.34806804	      1.17544553	     18.79326510	     -9.13748502	      0.00000000	      0.00000000	     94.03301405	      0.77840164	     -3.55452635	     87.77105559	      1.53189391	     23.49363886	     -7.19732846	      0.00000000	      0.00000000	    -58.11192100	     -1.81293835	    -49.45342638	     89.84291015	     33.89171758	     22.79427101	     42.13724243	     16.60468197	      0.00000000	      0.00000000	     72.06153710	    -20.50394143	    -86.26315380	      2.85890773	      3.45713917	      0.00000000	      0.00000000
      0.04500000	    -25.75864186	      4.09164263	      5.55866643	      0.10137775	      1.05884013	     -0.26549023	      0.00000000	      0.50000000	      0.00000000	      0.25000000	     58.04242165	    -11.70336597	     -0.52977919	     67.34667425	      1.17542121	     18.82104020	     -9.09221264	      0.00000000	      0.00000000	     93.98422383	      0.79427015	     -3.60011361	     87.75550591	      1.53162251	     23.49000810	     -7.15498967	      0.00000000	      0.00000000	    -58.16664351	     -1.87338591	    -49.57210943	     89.84227984	     33.82880697	     22.92762936	     41.95337644	     18.19021529	      0.00000000	      0.00000000	     72.08971597	    -20.59403150	    -86.44924501	      2.84387548	      3.70644031	      0.00000000	      0.00000000
      0.05000000	    -25.76207947	      4.05848104	      5.58115120	      0.10136905	      1.05882610	     -0.26550667	      0.00000000	      0.50000000	      0.00000000	      0.25000000	     58.03969141	    -11.69551776	     -0.56076734	     67.35169857	      1.17550890	     18.82809124	     -9.09369229	      0.00000000	      0.00000000	     94.01113207	      0.81317090	     -3.56700913	     87.76655563	      1.53181537	     23.44410807	     -7.14611691	      0.00000000	      0.00000000	    -58.16048939	     -1.83364504	    -49.54642073	     89.84251180	     33.78477866	     23.08918978	     41.97497366	     18.06671751	      0.00000000	      0.00000000	     72.09330713	    -20.59089898	    -86.48390743	      2.83043004	      3.78280247	      0.00000000	      0.00000000
      0.05500000	    -25.75598860	      4.04691963	      5.57061302	      0.10139472	      1.05875614	     -0.26554762	      0.00000000	      0.50000000	      0.00000000	      0.25000000	     58.04318741	    -11.68841359	     -0.57190316	     67.37209833	      1.17586494	     18.83526795	     -9.08843414	      0.00000000	      0.00000000	     94.02342438	      0.78498219	     -3.58856209	     87.79270339	      1.53227173	     23.42981206	     -7.16340432	      0.00000000	      0.00000000	    -58.15924700	     -1.83171137	    -49.53171343	     89.84219341	     33.84956777	     22.84513794	     42.00151379	     17.99554922	      0.00000000	      0.00000000	     72.07199499	    -20.55590329	    -86.43035764	      2.87802126	      3.69203358	      0.00000000	      0.00000000
